<svg data-v-fde0c5aa="" xmlns="http://www.w3.org/2000/svg" viewBox="0 0 300 300" class="font"><!----><defs data-v-fde0c5aa=""><!----></defs><rect data-v-fde0c5aa="" fill="#48463E" x="0" y="0" width="300px" height="300px" class="logo-background-square"></rect><defs data-v-fde0c5aa=""><!----></defs><g data-v-fde0c5aa="" id="dd232c6a-3d36-4838-a180-8c8328509ddf" fill="#CB594D" transform="matrix(5.717350006103516,0,0,5.717350006103516,36.522701575934164,109.61929595186902)"><path d="M4.26 4.14L4.26 4.14L4.26 4.14Q4.26 4.23 4.26 4.30L4.26 4.30L4.26 4.30Q4.27 4.38 4.27 4.47L4.27 4.47L4.27 4.47Q4.30 4.63 4.31 4.81L4.31 4.81L4.31 4.81Q4.33 4.98 4.35 5.15L4.35 5.15L4.35 5.15Q4.59 5.12 4.82 5.11L4.82 5.11L4.82 5.11Q5.05 5.10 5.29 5.11L5.29 5.11L5.29 5.11Q5.40 5.10 5.49 5.10L5.49 5.10L5.49 5.10Q5.59 5.10 5.70 5.08L5.70 5.08L5.66 5.12L5.66 5.12Q5.78 5.14 5.91 5.14L5.91 5.14L5.91 5.14Q6.03 5.15 6.16 5.18L6.16 5.18L6.24 5.18L6.22 5.21L6.23 5.21L6.24 5.21L6.24 5.21Q6.38 5.25 6.31 5.38L6.31 5.38L6.31 5.38Q6.24 5.52 6.09 5.67L6.09 5.67L6.09 5.67Q5.94 5.82 5.77 5.96L5.77 5.96L5.77 5.96Q5.60 6.09 5.53 6.12L5.53 6.12L5.53 6.12Q5.52 6.12 5.50 6.13L5.50 6.13L5.50 6.13Q5.49 6.13 5.47 6.13L5.47 6.13L5.40 6.13L5.40 6.13Q5.26 6.15 5.14 6.15L5.14 6.15L5.14 6.15Q5.01 6.16 4.89 6.16L4.89 6.16L4.89 6.16Q4.77 6.17 4.68 6.18L4.68 6.18L4.68 6.18Q4.58 6.19 4.48 6.20L4.48 6.20L4.48 6.20Q4.52 6.64 4.55 7.06L4.55 7.06L4.55 7.06Q4.58 7.49 4.56 7.91L4.56 7.91L4.56 7.91Q4.55 8.25 4.54 8.68L4.54 8.68L4.54 8.68Q4.54 9.11 4.54 9.52L4.54 9.52L4.54 9.52Q4.56 9.74 4.58 9.96L4.58 9.96L4.58 9.96Q4.59 10.18 4.59 10.39L4.59 10.39L4.59 10.39Q4.58 10.47 4.47 10.63L4.47 10.63L4.47 10.63Q4.35 10.79 4.21 10.94L4.21 10.94L4.21 10.94Q4.07 11.09 3.93 11.18L3.93 11.18L3.93 11.18Q3.78 11.27 3.68 11.20L3.68 11.20L3.68 11.20Q3.68 11.20 3.67 11.21L3.67 11.21L3.67 11.19L3.67 11.19Q3.65 11.12 3.65 11.07L3.65 11.07L3.65 11.07Q3.64 11.02 3.63 10.96L3.63 10.96L3.63 10.96Q3.54 11.06 3.45 11.15L3.45 11.15L3.45 11.15Q3.36 11.24 3.27 11.30L3.27 11.30L3.27 11.30Q3.18 11.35 3.10 11.38L3.10 11.38L3.10 11.38Q3.02 11.40 2.97 11.34L2.97 11.34L2.97 11.34Q2.80 10.89 2.79 10.41L2.79 10.41L2.79 10.41Q2.79 9.93 2.77 9.45L2.77 9.45L2.77 9.45Q2.73 8.69 2.71 7.96L2.71 7.96L2.71 7.96Q2.69 7.22 2.70 6.47L2.70 6.47L2.70 6.47Q2.59 6.50 2.50 6.51L2.50 6.51L2.50 6.51Q2.41 6.52 2.30 6.54L2.30 6.54L2.28 6.54L2.03 6.83L2.03 6.83Q1.75 6.83 1.46 6.86L1.46 6.86L1.46 6.86Q1.16 6.89 0.90 6.82L0.90 6.82L0.90 6.82Q0.83 6.76 0.87 6.62L0.87 6.62L0.87 6.62Q0.85 6.62 0.85 6.62L0.85 6.62L0.85 6.62Q0.85 6.61 0.87 6.61L0.87 6.61L0.87 6.61Q0.83 6.58 0.83 6.55L0.83 6.55L0.83 6.55Q0.80 6.55 0.78 6.57L0.78 6.57L0.78 6.57Q0.77 6.58 0.74 6.58L0.74 6.58L0.74 6.58Q0.64 6.59 0.62 6.57L0.62 6.57L0.62 6.57Q0.60 6.55 0.62 6.45L0.62 6.45L0.62 6.45Q0.73 6.01 1.02 5.83L1.02 5.83L1.02 5.83Q1.32 5.66 1.68 5.59L1.68 5.59L1.68 5.59Q1.93 5.50 2.19 5.43L2.19 5.43L2.19 5.43Q2.45 5.36 2.72 5.31L2.72 5.31L2.72 5.31Q2.72 5.12 2.72 4.96L2.72 4.96L2.72 4.96Q2.72 4.77 2.74 4.61L2.74 4.61L2.74 4.61Q2.76 4.49 2.88 4.30L2.88 4.30L2.88 4.30Q3.01 4.12 3.18 3.96L3.18 3.96L3.18 3.96Q3.25 3.70 3.51 3.48L3.51 3.48L3.51 3.48Q3.77 3.26 4.00 3.19L4.00 3.19L4.00 3.19Q4.10 3.21 4.15 3.30L4.15 3.30L4.15 3.30Q4.20 3.39 4.22 3.52L4.22 3.52L4.22 3.52Q4.24 3.65 4.24 3.79L4.24 3.79L4.24 3.79Q4.24 3.93 4.24 4.06L4.24 4.06L4.24 4.06Q4.26 4.09 4.26 4.14ZM11.12 4.09L11.12 4.09L11.12 4.09Q11.20 4.09 11.44 4.12L11.44 4.12L11.44 4.12Q11.68 4.14 11.95 4.21L11.95 4.21L11.95 4.21Q12.22 4.28 12.45 4.41L12.45 4.41L12.45 4.41Q12.68 4.54 12.73 4.72L12.73 4.72L12.73 4.72Q12.87 4.87 12.96 5.08L12.96 5.08L12.96 5.08Q13.26 5.70 13.09 6.17L13.09 6.17L13.09 6.17Q13.16 6.19 13.22 6.20L13.22 6.20L13.22 6.20Q13.29 6.22 13.34 6.24L13.34 6.24L13.34 6.24Q13.37 6.37 13.31 6.50L13.31 6.50L13.31 6.50Q13.24 6.62 13.14 6.73L13.14 6.73L13.14 6.73Q13.03 6.85 12.91 6.94L12.91 6.94L12.91 6.94Q12.78 7.03 12.70 7.08L12.70 7.08L12.70 7.08Q12.46 7.22 12.12 7.25L12.12 7.25L12.12 7.25Q11.79 7.27 11.47 7.27L11.47 7.27L11.47 7.27Q10.88 7.34 10.32 7.46L10.32 7.46L10.32 7.46Q9.77 7.59 9.21 7.73L9.21 7.73L9.21 7.73Q8.95 7.80 8.69 7.88L8.69 7.88L8.69 7.88Q8.43 7.97 8.16 8.04L8.16 8.04L8.16 8.04Q8.41 8.69 8.96 9.13L8.96 9.13L8.96 9.13Q9.45 9.41 10.07 9.48L10.07 9.48L10.07 9.48Q10.68 9.55 11.26 9.51L11.26 9.51L11.72 9.38L11.72 9.38Q11.75 9.37 11.70 9.38L11.70 9.38L11.70 9.38Q11.65 9.39 11.58 9.41L11.58 9.41L11.58 9.41Q11.51 9.42 11.46 9.44L11.46 9.44L11.46 9.44Q11.41 9.45 11.45 9.44L11.45 9.44L11.45 9.44Q11.83 9.34 12.23 9.25L12.23 9.25L12.23 9.25Q12.63 9.17 13.01 9.03L13.01 9.03L13.01 9.03Q13.12 8.95 13.24 8.86L13.24 8.86L13.24 8.86Q13.36 8.76 13.51 8.71L13.51 8.71L13.51 8.71Q13.55 8.69 13.60 8.69L13.60 8.69L13.60 8.69Q13.65 8.68 13.69 8.69L13.69 8.69L13.69 8.69Q13.72 8.81 13.72 8.86L13.72 8.86L13.72 8.86Q13.65 9.11 13.45 9.30L13.45 9.30L13.45 9.30Q13.26 9.49 13.06 9.63L13.06 9.63L13.06 9.63Q12.80 9.77 12.52 9.88L12.52 9.88L12.52 9.88Q12.50 9.90 12.49 9.90L12.49 9.90L12.49 9.90Q12.17 10.09 11.79 10.20L11.79 10.20L11.79 10.20Q11.41 10.30 11.05 10.36L11.05 10.36L11.05 10.36Q10.71 10.42 10.32 10.44L10.32 10.44L10.32 10.44Q9.58 10.57 9.01 10.48L9.01 10.48L9.01 10.48Q8.44 10.39 8.02 10.01L8.02 10.01L8.02 10.01Q7.74 9.84 7.54 9.60L7.54 9.60L7.54 9.60Q7.34 9.35 7.24 9.02L7.24 9.02L7.24 9.02Q7.20 8.92 7.20 8.83L7.20 8.83L7.20 8.83Q7.20 8.74 7.21 8.64L7.21 8.64L7.21 8.64Q7.11 8.37 7.03 8.02L7.03 8.02L7.03 8.02Q6.96 7.77 7.04 7.50L7.04 7.50L7.04 7.50Q7.11 7.24 7.15 6.96L7.15 6.96L7.15 6.96Q7.20 6.66 7.37 6.37L7.37 6.37L7.37 6.37Q7.55 6.08 7.74 5.82L7.74 5.82L7.74 5.82Q8.09 5.36 8.46 5.05L8.46 5.05L8.46 5.05Q8.82 4.75 9.22 4.55L9.22 4.55L9.22 4.55Q9.62 4.35 10.09 4.25L10.09 4.25L10.09 4.25Q10.56 4.14 11.12 4.09ZM8.12 6.82L8.12 6.82L8.12 6.82Q8.12 6.92 8.13 7L8.13 7L8.13 7Q8.15 7.08 8.18 7.18L8.18 7.18L8.18 7.18Q8.41 7.07 8.67 6.99L8.67 6.99L8.67 6.99Q8.92 6.90 9.18 6.83L9.18 6.83L9.18 6.83Q9.72 6.66 10.25 6.54L10.25 6.54L10.25 6.54Q10.79 6.43 11.16 6.33L11.16 6.33L11.16 6.33Q11.40 6.26 11.63 6.20L11.63 6.20L11.63 6.20Q11.87 6.15 12.11 6.10L12.11 6.10L12.11 6.10Q12.10 6.06 12.08 6.03L12.08 6.03L12.08 6.03Q12.07 5.99 12.05 5.95L12.05 5.95L12.05 5.95Q11.89 5.59 11.58 5.40L11.58 5.40L11.58 5.40Q11.27 5.21 10.86 5.18L10.86 5.18L10.86 5.18Q10.44 5.14 10.03 5.26L10.03 5.26L10.03 5.26Q9.62 5.38 9.25 5.61L9.25 5.61L9.25 5.61Q8.89 5.84 8.60 6.15L8.60 6.15L8.60 6.15Q8.30 6.45 8.12 6.82ZM8.30 5.82L8.30 5.82L8.30 5.82Q8.48 5.66 8.67 5.51L8.67 5.51L8.67 5.51Q8.85 5.36 9.04 5.22L9.04 5.22L9.04 5.22Q8.60 5.40 8.37 5.73L8.37 5.73L8.37 5.73Q8.34 5.75 8.34 5.77L8.34 5.77L8.34 5.77Q8.33 5.80 8.30 5.82ZM14.64 2.09L14.64 2.09L14.64 2.09Q14.63 2.02 14.62 1.97L14.62 1.97L14.62 1.97Q14.60 1.92 14.59 1.88L14.59 1.88L14.53 1.90L14.53 1.90Q14.55 1.88 14.55 1.83L14.55 1.83L14.55 1.83Q14.56 1.79 14.59 1.76L14.59 1.76L14.59 1.76Q14.63 1.65 14.73 1.50L14.73 1.50L14.73 1.50Q14.83 1.36 14.95 1.23L14.95 1.23L14.95 1.23Q15.06 1.11 15.20 1.03L15.20 1.03L15.20 1.03Q15.34 0.95 15.48 0.98L15.48 0.98L15.48 0.98Q15.51 1.04 15.52 1.08L15.52 1.08L15.52 1.08Q15.53 1.13 15.55 1.20L15.55 1.20L15.55 1.20Q15.71 1.04 15.87 0.93L15.87 0.93L15.87 0.93Q16.03 0.83 16.10 0.90L16.10 0.90L16.13 0.87L16.13 0.99L16.11 0.99L16.11 0.99Q16.09 1.32 16.04 1.60L16.04 1.60L16.04 1.60Q16.00 1.88 15.97 2.20L15.97 2.20L15.97 2.20Q15.95 2.52 15.97 2.84L15.97 2.84L15.97 2.84Q15.99 3.16 15.99 3.49L15.99 3.49L15.99 3.49Q15.97 3.85 15.96 4.20L15.96 4.20L15.96 4.20Q15.95 4.55 15.93 4.91L15.93 4.91L15.95 4.91L15.95 4.91Q16.03 5.12 16.08 5.35L16.08 5.35L16.08 5.35Q16.13 5.59 16.16 5.84L16.16 5.84L16.16 5.84Q16.53 5.59 16.95 5.42L16.95 5.42L16.95 5.42Q17.30 5.25 17.67 5.12L17.67 5.12L17.67 5.12Q18.03 5.00 18.41 4.96L18.41 4.96L18.41 4.96Q18.66 4.91 18.82 4.93L18.82 4.93L18.83 4.93L18.83 4.93Q18.84 4.93 18.85 4.93L18.85 4.93L18.85 4.93Q18.86 4.94 18.89 4.94L18.89 4.94L18.89 4.94Q18.90 5.01 18.89 5.06L18.89 5.06L18.89 5.06Q18.87 5.11 18.84 5.18L18.84 5.18L18.84 5.18Q18.96 5.15 19.10 5.13L19.10 5.13L19.10 5.13Q19.25 5.11 19.39 5.10L19.39 5.10L19.39 5.10Q19.60 4.96 19.66 5.08L19.66 5.08L19.73 5.08L19.73 5.08Q19.87 5.11 19.80 5.23L19.80 5.23L19.80 5.23Q19.74 5.35 19.71 5.42L19.71 5.42L19.71 5.42Q19.70 5.43 19.69 5.45L19.69 5.45L19.69 5.45Q19.68 5.46 19.67 5.47L19.67 5.47L19.67 5.47Q19.66 5.49 19.63 5.49L19.63 5.49L19.63 5.49Q19.59 6.12 19.65 6.73L19.65 6.73L19.65 6.73Q19.71 7.35 19.74 7.98L19.74 7.98L19.74 8.32L19.74 8.32Q19.75 8.36 19.75 8.40L19.75 8.40L19.75 8.40Q19.75 8.43 19.77 8.47L19.77 8.47L19.77 8.47Q19.81 8.76 19.89 9.13L19.89 9.13L19.89 9.13Q19.96 9.49 19.91 9.81L19.91 9.81L19.91 9.93L19.91 9.93Q19.89 10.01 19.77 10.18L19.77 10.18L19.77 10.18Q19.66 10.35 19.51 10.50L19.51 10.50L19.51 10.50Q19.36 10.65 19.21 10.73L19.21 10.73L19.21 10.73Q19.07 10.81 18.98 10.72L18.98 10.72L18.98 10.72Q18.89 10.54 18.86 10.32L18.86 10.32L18.86 10.32Q18.84 10.32 18.83 10.33L18.83 10.33L18.83 10.33Q18.83 10.14 18.75 9.93L18.75 9.93L18.75 9.93Q18.73 9.88 18.73 9.85L18.73 9.85L18.73 9.85Q18.72 9.81 18.70 9.77L18.70 9.77L18.70 9.77Q18.68 9.77 18.65 9.77L18.65 9.77L18.65 9.77Q18.62 9.76 18.61 9.73L18.61 9.73L18.61 9.51L18.61 9.51Q18.59 9.46 18.59 9.43L18.59 9.43L18.59 9.43Q18.58 9.39 18.56 9.35L18.56 9.35L18.56 9.35Q18.49 9.10 18.40 8.69L18.40 8.69L18.40 8.69Q18.31 8.27 18.24 7.83L18.24 7.83L18.24 7.83Q18.17 7.39 18.14 6.96L18.14 6.96L18.14 6.96Q18.10 6.54 18.12 6.26L18.12 6.26L18.12 6.24L18.12 6.24Q18.12 6.23 18.12 6.22L18.12 6.22L18.12 6.22Q18.13 6.20 18.13 6.19L18.13 6.19L18.13 6.19Q17.96 6.15 17.81 6.15L17.81 6.15L17.30 6.27L17.30 6.27Q17.02 6.41 16.74 6.59L16.74 6.59L16.74 6.59Q16.46 6.76 16.17 6.93L16.17 6.93L16.17 6.93Q16.16 7.28 16.14 7.62L16.14 7.62L16.14 7.62Q16.13 7.95 16.13 8.26L16.13 8.26L16.13 8.26Q16.14 8.34 16.15 8.42L16.15 8.42L16.15 8.42Q16.16 8.50 16.18 8.58L16.18 8.58L16.18 8.58Q16.17 8.55 16.17 8.53L16.17 8.53L16.17 8.53Q16.17 8.50 16.18 8.53L16.18 8.53L16.18 8.53Q16.27 8.85 16.33 9.26L16.33 9.26L16.33 9.26Q16.39 9.67 16.24 10.00L16.24 10.00L16.24 10.00Q16.11 10.22 15.89 10.46L15.89 10.46L15.89 10.46Q15.67 10.70 15.39 10.72L15.39 10.72L15.39 10.72Q15.29 10.68 15.25 10.49L15.25 10.49L15.25 10.49Q15.09 10.71 14.86 10.88L14.86 10.88L14.86 10.88Q14.63 11.06 14.52 10.95L14.52 10.95L14.52 10.95Q14.49 10.77 14.52 10.58L14.52 10.58L14.52 10.58Q14.55 10.39 14.57 10.21L14.57 10.21L14.57 10.21Q14.57 8.60 14.49 6.96L14.49 6.96L14.49 6.96Q14.45 6.41 14.45 5.81L14.45 5.81L14.45 5.81Q14.45 5.19 14.47 4.56L14.47 4.56L14.47 4.56Q14.49 3.92 14.54 3.29L14.54 3.29L14.54 3.29Q14.59 2.66 14.64 2.09ZM24.46 3.88L24.46 3.88L24.46 3.88Q24.47 3.86 24.47 3.86L24.47 3.86L24.47 3.86Q24.49 3.86 24.50 3.85L24.50 3.85L24.50 3.85Q24.53 3.82 24.60 3.77L24.60 3.77L24.60 3.77Q24.67 3.71 24.75 3.67L24.75 3.67L24.75 3.67Q24.82 3.63 24.89 3.63L24.89 3.63L24.89 3.63Q24.96 3.63 24.98 3.71L24.98 3.71L24.98 3.71Q25.00 4.96 25.09 6.18L25.09 6.18L25.09 6.18Q25.17 7.41 25.14 8.65L25.14 8.65L25.14 8.65Q25.13 8.85 25.13 9.07L25.13 9.07L25.13 9.07Q25.13 9.30 25.12 9.53L25.12 9.53L25.12 9.53Q25.13 9.55 25.13 9.56L25.13 9.56L25.13 9.56Q25.13 9.56 25.14 9.58L25.14 9.58L25.14 9.58Q25.26 9.93 25.28 10.21L25.28 10.21L25.28 10.21Q25.31 10.49 25.25 10.74L25.25 10.74L25.25 10.74Q25.19 10.99 25.02 11.23L25.02 11.23L25.02 11.23Q24.85 11.47 24.57 11.73L24.57 11.73L24.57 11.73Q24.43 11.84 24.26 12.01L24.26 12.01L24.26 12.01Q24.08 12.17 23.88 12.32L23.88 12.32L23.88 12.32Q23.66 12.57 23.40 12.78L23.40 12.78L23.40 12.78Q23.14 12.99 22.86 13.13L22.86 13.13L22.86 13.13Q22.58 13.26 22.27 13.30L22.27 13.30L22.27 13.30Q21.95 13.34 21.60 13.24L21.60 13.24L21.60 13.24Q21.29 13.16 21 12.96L21 12.96L21 12.96Q20.71 12.75 20.54 12.47L20.54 12.47L20.54 12.47Q20.44 12.32 20.50 12.14L20.50 12.14L20.50 12.14Q20.55 11.97 20.69 11.80L20.69 11.80L20.69 11.80Q20.72 11.66 20.80 11.56L20.80 11.56L20.80 11.56Q20.89 11.45 20.99 11.35L20.99 11.35L20.99 11.35Q21.20 11.13 21.32 11.03L21.32 11.03L21.32 11.03Q21.45 10.93 21.53 10.93L21.53 10.93L21.53 10.93Q21.60 10.92 21.66 11.00L21.66 11.00L21.66 11.00Q21.73 11.07 21.81 11.19L21.81 11.19L21.81 11.19Q21.88 11.21 21.95 11.23L21.95 11.23L21.95 11.23Q22.02 11.26 22.08 11.28L22.08 11.28L22.08 11.28Q22.40 11.45 22.68 11.68L22.68 11.68L22.68 11.68Q22.96 11.90 23.28 11.94L23.28 11.94L23.28 11.94Q23.28 11.93 23.30 11.93L23.30 11.93L23.30 11.93Q23.48 11.77 23.57 11.47L23.57 11.47L23.57 11.47Q23.66 11.16 23.72 10.82L23.72 10.82L23.72 10.82Q23.60 9.90 23.63 8.95L23.63 8.95L23.63 8.95Q23.66 8.01 23.76 7.07L23.76 7.07L23.76 7.07Q23.70 6.43 23.63 5.78L23.63 5.78L23.63 5.78Q23.55 5.14 23.44 4.51L23.44 4.51L23.44 4.51Q23.44 4.49 23.43 4.49L23.43 4.49L23.43 4.49Q23.42 4.48 23.42 4.47L23.42 4.47L23.44 4.45L23.44 4.45Q23.45 4.33 23.54 4.17L23.54 4.17L23.54 4.17Q23.63 4.02 23.77 3.88L23.77 3.88L23.77 3.88Q23.90 3.75 24.05 3.67L24.05 3.67L24.05 3.67Q24.21 3.58 24.35 3.61L24.35 3.61L24.35 3.61Q24.39 3.74 24.46 3.88ZM23.28 1.83L24.21 1.04L24.21 1.04Q24.21 1.06 24.20 1.08L24.20 1.08L24.20 1.08Q24.19 1.11 24.19 1.13L24.19 1.13L24.19 1.13Q24.30 1.02 24.45 0.91L24.45 0.91L24.45 0.91Q24.60 0.80 24.77 0.83L24.77 0.83L24.77 0.83Q24.86 0.87 24.84 1.01L24.84 1.01L24.84 1.01Q24.81 1.15 24.79 1.22L24.79 1.22L24.79 1.22Q24.77 1.33 24.77 1.40L24.77 1.40L24.81 1.40L24.81 1.40Q24.85 1.43 24.87 1.46L24.87 1.46L24.87 1.46Q24.89 1.50 24.92 1.53L24.92 1.53L24.92 1.53Q24.85 1.58 24.80 1.63L24.80 1.63L24.80 1.63Q24.75 1.68 24.70 1.74L24.70 1.74L24.70 1.74Q24.68 1.76 24.60 1.88L24.60 1.88L24.61 1.86L24.61 1.86Q24.58 1.89 24.58 1.90L24.58 1.90L24.58 1.90Q24.58 1.90 24.57 1.92L24.57 1.92L24.57 1.92Q24.47 2.03 24.36 2.14L24.36 2.14L24.36 2.14Q24.25 2.25 24.14 2.35L24.14 2.35L24.14 2.35Q24.07 2.42 23.98 2.49L23.98 2.49L23.98 2.49Q23.90 2.56 23.83 2.59L23.83 2.59L23.83 2.59Q23.67 2.74 23.51 2.85L23.51 2.85L23.51 2.85Q23.35 2.95 23.27 2.86L23.27 2.86L23.27 2.86Q23.20 2.65 23.23 2.35L23.23 2.35L23.23 2.35Q23.27 2.06 23.28 1.83L23.28 1.83ZM26.38 10.86L26.38 10.86L26.38 10.86Q26.05 10.70 25.91 10.42L25.91 10.42L25.91 10.42Q25.77 10.14 25.78 9.82L25.78 9.82L25.78 9.82Q25.79 9.51 25.94 9.20L25.94 9.20L25.94 9.20Q26.08 8.89 26.33 8.67L26.33 8.67L26.33 8.67Q26.50 8.44 26.74 8.26L26.74 8.26L26.74 8.26Q26.98 8.08 27.24 7.98L27.24 7.98L27.24 7.98Q27.51 7.88 27.78 7.90L27.78 7.90L27.78 7.90Q28.06 7.91 28.29 8.08L28.29 8.08L28.29 8.08Q28.81 8.44 28.96 8.84L28.96 8.84L28.96 8.84Q29.11 9.24 28.99 9.60L28.99 9.60L28.99 9.60Q28.88 9.95 28.57 10.26L28.57 10.26L28.57 10.26Q28.27 10.57 27.87 10.76L27.87 10.76L27.87 10.76Q27.48 10.95 27.08 10.99L27.08 10.99L27.08 10.99Q26.68 11.03 26.38 10.86ZM29.99 7.81L29.99 7.81L29.99 7.81Q29.92 7.25 29.96 6.72L29.96 6.72L29.92 6.76L29.92 6.76Q29.92 6.52 29.93 6.32L29.93 6.32L29.93 6.32Q29.93 6.12 29.97 5.94L29.97 5.94L29.97 5.94Q30.02 5.77 30.11 5.61L30.11 5.61L30.11 5.61Q30.21 5.45 30.41 5.28L30.41 5.28L30.41 5.28Q30.48 5.22 30.57 5.15L30.57 5.15L30.57 5.15Q30.66 5.08 30.77 5.04L30.77 5.04L31.09 4.73L31.09 4.73Q31.12 4.82 31.14 4.91L31.14 4.91L31.14 4.91Q31.16 5.00 31.18 5.08L31.18 5.08L31.18 5.08Q31.32 4.97 31.43 4.93L31.43 4.93L31.43 4.93Q31.54 4.90 31.57 5.03L31.57 5.03L31.57 5.03Q31.56 5.14 31.55 5.24L31.55 5.24L31.55 5.24Q31.54 5.35 31.54 5.46L31.54 5.46L31.54 5.46Q31.53 6.02 31.52 6.58L31.52 6.58L31.52 6.58Q31.51 7.14 31.53 7.70L31.53 7.70L31.53 7.70Q31.57 8.25 31.65 8.79L31.65 8.79L31.65 8.79Q31.72 9.34 31.85 9.91L31.85 9.91L31.85 9.91Q31.86 9.91 31.89 9.88L31.89 9.88L31.89 9.88Q31.89 9.91 31.89 9.95L31.89 9.95L31.89 9.95Q31.88 9.98 31.88 10.01L31.88 10.01L31.88 10.01Q31.85 10.09 31.75 10.25L31.75 10.25L31.75 10.25Q31.64 10.40 31.50 10.55L31.50 10.55L31.50 10.55Q31.36 10.70 31.22 10.79L31.22 10.79L31.22 10.79Q31.08 10.88 30.98 10.84L30.98 10.84L30.98 10.84Q30.87 10.93 30.76 10.98L30.76 10.98L30.76 10.98Q30.65 11.02 30.58 10.95L30.58 10.95L30.58 10.95Q30.56 10.91 30.56 10.87L30.56 10.87L30.56 10.87Q30.55 10.84 30.53 10.79L30.53 10.79L30.53 10.79Q30.32 10.93 30.23 10.84L30.23 10.84L30.23 10.84Q30.21 10.77 30.21 10.68L30.21 10.68L30.21 10.68Q30.21 10.61 30.20 10.53L30.20 10.53L30.20 10.53Q30.16 10.43 30.12 10.25L30.12 10.25L30.12 10.25Q30.09 10.07 30.07 9.86L30.07 9.86L30.07 9.86Q30.06 9.66 30.04 9.48L30.04 9.48L30.04 9.48Q30.03 9.30 30.03 9.21L30.03 9.21L30.03 9.21Q30.02 9.02 30.02 8.83L30.02 8.83L30.02 8.83Q30.02 8.65 30.02 8.46L30.02 8.46L30.02 8.46Q30.00 8.30 30.00 8.13L30.00 8.13L30.00 8.13Q29.99 7.97 29.99 7.81ZM30.30 2.88L30.37 2.83L30.37 2.83Q30.38 2.80 30.38 2.77L30.38 2.77L30.38 2.77Q30.38 2.73 30.39 2.70L30.39 2.70L30.39 2.70Q30.51 2.45 30.73 2.21L30.73 2.21L30.73 2.21Q30.95 1.97 31.23 1.90L31.23 1.90L31.26 1.90L31.26 1.90Q31.33 1.92 31.35 1.99L31.35 1.99L31.35 2.17L31.35 2.17Q31.46 2.09 31.54 2.07L31.54 2.07L31.54 2.07Q31.61 2.06 31.64 2.17L31.64 2.17L31.64 2.17Q31.67 2.39 31.67 2.59L31.67 2.59L31.67 2.59Q31.67 2.79 31.74 2.80L31.74 2.80L31.50 3.08L31.50 3.08Q31.47 3.28 31.42 3.46L31.42 3.46L31.42 3.46Q31.36 3.65 31.25 3.81L31.25 3.81L31.25 3.81Q31.22 3.85 31.18 3.91L31.18 3.91L31.18 3.91Q31.14 3.98 31.07 4.05L31.07 4.05L31.07 4.05Q31.05 4.06 31.05 4.07L31.05 4.07L31.05 4.09L31.04 4.10L31.04 4.10Q31.04 4.12 31.02 4.12L31.02 4.12L31.02 4.12Q31.02 4.12 31.02 4.13L31.02 4.13L31.02 4.13Q30.98 4.19 30.87 4.33L30.87 4.33L30.87 4.33Q30.76 4.48 30.63 4.62L30.63 4.62L30.63 4.62Q30.49 4.76 30.35 4.83L30.35 4.83L30.35 4.83Q30.21 4.90 30.13 4.82L30.13 4.82L30.13 4.82Q30.11 4.34 30.11 3.84L30.11 3.84L30.11 3.84Q30.11 3.33 30.30 2.88L30.30 2.88ZM32.66 9.52L32.66 9.52L32.66 9.52Q32.45 9.10 32.43 8.63L32.43 8.63L32.43 8.63Q32.41 8.16 32.54 7.69L32.54 7.69L32.54 7.69Q32.68 7.22 32.94 6.78L32.94 6.78L32.94 6.78Q33.21 6.33 33.56 5.96L33.56 5.96L33.56 5.96Q33.59 5.94 33.61 5.90L33.61 5.90L33.61 5.90Q33.64 5.87 33.67 5.84L33.67 5.84L33.67 5.84Q33.84 5.66 34.06 5.45L34.06 5.45L34.06 5.45Q34.29 5.25 34.54 5.08L34.54 5.08L34.54 5.08Q34.79 4.91 35.06 4.81L35.06 4.81L35.06 4.81Q35.34 4.70 35.60 4.73L35.60 4.73L35.60 4.73Q35.77 4.76 35.92 4.79L35.92 4.79L35.92 4.79Q36.06 4.82 36.22 4.84L36.22 4.84L36.22 4.84Q36.75 4.77 37.20 5.04L37.20 5.04L37.20 5.04Q37.39 5.17 37.60 5.29L37.60 5.29L37.60 5.29Q37.80 5.40 37.97 5.56L37.97 5.56L37.97 5.56Q38.26 5.87 38.47 6.22L38.47 6.22L38.47 6.22Q38.68 6.57 38.78 6.94L38.78 6.94L38.78 6.94Q38.81 7 38.84 7.04L38.84 7.04L38.84 7.04Q38.86 7.08 38.89 7.14L38.89 7.14L38.89 7.14Q39.02 7.39 39.07 7.72L39.07 7.72L39.07 7.72Q39.13 8.05 39.03 8.33L39.03 8.33L39.03 8.33Q38.86 8.83 38.77 9.10L38.77 9.10L38.77 9.10Q38.67 9.37 38.52 9.55L38.52 9.55L38.52 9.55Q38.37 9.74 38.15 9.94L38.15 9.94L38.15 9.94Q37.93 10.14 37.51 10.51L37.51 10.51L37.51 10.51Q37.35 10.67 37.16 10.77L37.16 10.77L37.16 10.77Q36.96 10.88 36.75 10.92L36.75 10.92L36.75 10.92Q36.48 10.98 36.20 10.96L36.20 10.96L36.20 10.96Q35.92 10.95 35.66 10.93L35.66 10.93L35.66 10.93Q35.34 10.92 35.08 10.91L35.08 10.91L35.08 10.91Q34.83 10.91 34.61 10.88L34.61 10.88L34.61 10.88Q34.38 10.85 34.15 10.77L34.15 10.77L34.15 10.77Q33.92 10.68 33.64 10.51L33.64 10.51L33.64 10.51Q33.63 10.51 33.61 10.50L33.61 10.50L33.61 10.50Q32.93 10.15 32.66 9.52ZM37.62 7.67L37.62 7.67L37.62 7.67Q37.37 7.34 36.99 7.01L36.99 7.01L36.99 7.01Q36.61 6.69 36.17 6.47L36.17 6.47L36.17 6.47Q35.73 6.26 35.27 6.18L35.27 6.18L35.27 6.18Q34.80 6.10 34.38 6.26L34.38 6.26L34.38 6.26Q34.15 6.45 33.98 6.75L33.98 6.75L33.98 6.75Q33.59 7.39 33.60 7.95L33.60 7.95L33.60 7.95Q33.61 8.51 33.94 8.90L33.94 8.90L33.94 8.90Q34.27 9.30 34.87 9.46L34.87 9.46L34.87 9.46Q35.46 9.63 36.23 9.51L36.23 9.51L36.23 9.51Q36.37 9.48 36.57 9.44L36.57 9.44L36.57 9.44Q36.76 9.39 36.97 9.32L36.97 9.32L36.97 9.32Q37.18 9.24 37.37 9.13L37.37 9.13L37.37 9.13Q37.56 9.03 37.69 8.90L37.69 8.90L37.69 8.90Q37.93 8.64 37.88 8.29L37.88 8.29L37.88 8.29Q37.83 7.95 37.62 7.67ZM37.95 9.55L37.95 9.55L37.95 9.55Q37.80 9.70 37.63 9.83L37.63 9.83L37.63 9.83Q37.45 9.95 37.30 10.07L37.30 10.07L37.30 10.07Q37.45 10.04 37.53 9.98L37.53 9.98L37.53 9.98Q37.63 9.90 37.74 9.81L37.74 9.81L37.74 9.81Q37.86 9.73 37.93 9.62L37.93 9.62L37.93 9.62Q37.94 9.60 37.94 9.59L37.94 9.59L37.94 9.59Q37.94 9.58 37.95 9.55Z"></path></g><!----><!----></svg>